<svg version="1.1" id="Layer_1" xmlns="http://www.w3.org/2000/svg" xmlns:xlink="http://www.w3.org/1999/xlink" x="0px" y="0px"
	 viewBox="0 0 301.9 218.2" style="enable-background:new 0 0 301.9 218.2;" xml:space="preserve">
<style type="text/css">
	.st0{fill:#FDFDFD;}
</style>
<g id="XMLID_43_">
	<path id="XMLID_44_" class="st0" d="M35,38.2c0.1,0.3,0.2,0.6,0.2,0.8c0,0.2,0,0.5-0.1,0.7c-0.6-0.1-1.1-0.1-1.5,0
		c-0.4,0.1-0.8,0.3-1.1,0.5c-0.8,0.8-1,2-0.6,3.6c0.4,1.5,1.4,2.5,2.9,3c1.3,0.4,2.6,0.2,4-0.7c1.4-0.8,2.3-2.2,2.6-4.2
		c0.4-2.8-0.4-5-2.6-6.6c-2.2-1.6-4.4-2.3-6.6-2.1c-2.7,0.3-4.9,1.5-6.4,3.5c-1.6,2.1-2.2,4.8-1.9,8c0.1,2,0.7,3.9,1.5,5.7
		c0.8,1.8,1.9,3.5,3.3,5c2.5,2.9,5.7,5.2,9.5,7c1.3,0.6,2.6,1.2,3.9,1.6c2-5.7,4.7-10.9,8.1-15.7c3.5-4.8,7.6-8.4,12.2-10.6
		c2.7-1.3,5-1.9,7-2c2,0,3.6,0.4,4.9,1.2c2.3,1.6,3.5,4.4,3.4,8.3c-0.1,3.9-1.5,7.7-4.2,11.6c-1.7,2.5-3.7,4.5-6.1,6
		c-2.3,1.5-4.9,2.6-7.5,3.3c-2.8,0.7-5.7,1-8.6,0.9c-1,0-1.9-0.1-2.9-0.2c-0.8,2.9-1.5,5.8-1.9,8.6c-0.5,3-0.8,5.8-0.9,8.6
		c-0.1,5.2,0.5,9.7,1.9,13.5c1.4,3.9,3.7,6.3,6.9,7.3c2.8,0.9,5.5,0.9,8.3,0.1c2.7-0.7,5.3-1.9,7.8-3.5c1.3-0.9,2.6-1.9,3.7-2.9
		c1.2-1,2.3-2.1,3.4-3.3c1.6-1.7,2.9-3.4,4.1-5.2s2.1-3.3,2.6-4.7c0.3,0,0.6,0,1,0c0.3,0,0.5,0.2,0.7,0.4c-0.6,1.5-1.5,3.2-2.7,5.2
		c-1.2,1.9-2.7,3.8-4.4,5.6c-2.1,2.2-4.4,4.3-7,6.2c-2.6,1.8-5.4,3.1-8.4,3.8c-1.5,0.3-3,0.5-4.5,0.5h-0.3c-1.7,0-3.3-0.3-5.1-0.8
		c-2.6-0.9-4.9-2.2-6.8-3.9c-1.9-1.7-3.4-3.7-4.5-6c-2.1-4.2-3.2-9.3-3.1-15c0.1-5.4,1-10.7,2.6-16c-5-1.6-9.4-4.1-13.2-7.5
		c-4-3.7-6.3-7.9-6.7-12.7c0-0.5-0.1-1.1-0.1-1.6c0-2.7,0.8-5.2,2.3-7.5c1.8-2.6,4.6-4.1,8.3-4.4c0.2,0,0.5-0.1,0.8-0.1
		c0.6,0,1.3,0.1,2,0.2c1,0.2,1.9,0.5,2.8,1c1.6,0.8,2.9,2.1,3.9,3.7c1,1.6,1.4,3.5,1,5.8c-0.4,2.5-1.6,4.2-3.4,5.1
		c-1.8,0.9-3.4,1.2-4.9,0.8c-2.2-0.6-3.5-1.9-4-4c-0.5-2.1-0.1-3.7,1.1-4.8c0.4-0.4,0.9-0.7,1.5-0.9C33.5,38.3,34.2,38.2,35,38.2z
		 M50.1,65.7c4.2,0.3,8.4-0.2,12.4-1.8c4-1.5,7.3-4.2,10-8.1c2.1-2.9,3.2-5.8,3.5-8.7c0.3-2.9-0.3-4.9-2.1-6
		c-0.9-0.6-2.1-0.9-3.7-0.7c-1.5,0.1-3.4,0.7-5.6,1.8c-3.7,1.9-7,5.1-9.7,9.6c-2.6,4.2-4.7,8.8-6.2,13.8
		C49.2,65.7,49.6,65.7,50.1,65.7z"/>
	<path id="XMLID_47_" class="st0" d="M106.4,81c-0.4,0-0.7-0.1-0.8-0.2c-0.1-0.1-0.2-0.3-0.3-0.6c1.4-1.1,2.1-2.8,2.1-5.3
		c0-2.4-0.8-4.4-2.2-6c-0.4-0.5-1-0.9-1.5-1.2c-0.6-0.3-1.3-0.6-2.1-0.7c-1.3-0.1-2.5,0-3.6,0.4c-1.1,0.5-2.2,1.2-3.1,2.1
		c-1.8,1.7-3.2,3.9-4.4,6.7c-1.2,2.8-2,5.7-2.5,8.6c-0.1,1-0.2,2.1-0.3,3.4c-0.1,1.3-0.1,2.5,0,3.7c0.1,2.4,0.5,4.6,1.1,6.5
		c0.6,1.9,1.6,2.9,2.9,3c0.6,0,1.2-0.2,1.9-0.7c0.6-0.5,1.3-1.3,1.8-2.3c1.2-1.8,2.2-4.1,3.1-7.1c0.9-3,1.4-6.1,1.6-9.4
		c0.1-0.5,0.2-0.9,0.4-1.1c0.2-0.3,0.5-0.5,0.7-0.6c0.8-0.3,1.7-0.2,2.6,0.5c0.9,0.7,1.4,1.5,1.3,2.2c-0.1,1.4-0.4,3.2-0.7,5.4
		c-0.2,2.2-0.4,4.6-0.6,7c-0.3,3.7-0.4,7.1-0.2,10.2s0.8,4.8,1.8,4.9c1.1,0.1,2.6-1.1,4.3-3.8c1.8-2.7,3.6-5.7,5.3-9.2
		c1.2-2.3,2.2-4.5,3.2-6.7c1-2.2,1.9-4.1,2.5-5.6c0.2,0.1,0.4,0.2,0.7,0.3c0.3,0.1,0.5,0.3,0.7,0.5c-0.6,1.5-1.4,3.3-2.3,5.3
		c-0.9,2-1.9,4-2.9,6c-2,3.8-4,7.1-6.2,10.1c-2.1,2.9-3.9,4.3-5.4,4.3h-0.2c-0.8-0.1-1.6-0.4-2.2-1c-0.6-0.5-1.1-1.2-1.5-2.1
		c-0.4-0.8-0.8-1.8-1.1-2.9c-0.2-1.1-0.4-2.2-0.6-3.4c-0.3-2.2-0.4-4.3-0.4-6.4c0-2,0.1-3.4,0.1-4.2c-0.1,0.5-0.5,1.6-1.1,3.1
		c-0.6,1.6-1.5,3-2.4,4.4c-0.7,0.9-1.4,1.7-2.2,2.3c-0.7,0.6-1.5,0.9-2.3,0.9c-1.4-0.1-2.7-0.5-3.7-1.1c-1-0.7-1.9-1.5-2.6-2.6
		c-1.3-1.9-2.1-4.2-2.4-7c-0.2-1.3-0.3-2.6-0.3-3.9c0-1.3,0.1-2.5,0.3-3.7c0.8-5.6,2.9-10.2,6.3-13.8c2.9-3,6.3-4.5,10.2-4.5
		c0.8,0,1.6,0,2.3,0.1c1.2,0.2,2.3,0.6,3.2,1.2c0.9,0.7,1.6,1.5,2.2,2.4c1.1,1.8,1.5,3.8,1.4,6C108.4,77.9,107.7,79.7,106.4,81z
		 M101.8,55.1c0.4-0.4,0.9-0.6,1.3-0.6c0.5,0,1,0.3,1.5,0.9c0.5,0.6,0.8,1.2,0.8,1.7c0,0.3-0.1,0.6-0.4,0.9c-1.3,1.4-3,2.5-4.9,3.5
		c-2,0.9-3.8,1.6-5.5,2.1c-0.2-0.2-0.3-0.4-0.4-0.5c0-0.1-0.1-0.2-0.1-0.4c0-0.1,0-0.2,0.1-0.4c1.8-0.9,3.3-2,4.5-3.3
		C99.9,57.6,100.9,56.4,101.8,55.1z"/>
	<path id="XMLID_50_" class="st0" d="M144.5,57v0.2c0,0.4-0.2,1-0.5,1.8c-0.4,1-1.3,1.7-2.8,2.1c-1.9,0.5-4.6,0.6-8,0.4
		c-1.7-0.1-3.4-0.1-5.2-0.1c-0.3,2-0.7,4.1-1.1,6.3c-0.5,2.9-1,5.8-1.5,8.8c-0.5,3-0.9,5.9-1.2,8.8c-0.5,4.3-0.8,8.4-0.9,12.2
		c0,3.8,0.3,6.9,1,9.4c0.3,1.3,0.8,2.3,1.4,3.1c0.6,0.8,1.3,1.4,2.2,1.6c0.8,0.2,1.7,0.1,2.6-0.1s1.8-0.8,2.6-1.5
		c1.6-1.2,3.2-2.9,4.8-5.1s3.1-4.5,4.5-6.8c1.4-2.4,2.6-4.8,3.6-7c1.1-2.2,1.8-3.9,2.3-5c0.3,0,0.7-0.1,1-0.1c0.3,0,0.6,0,0.9,0.1
		c-0.3,0.7-0.7,1.6-1.2,2.6c-0.5,1.1-1,2.2-1.6,3.4c-1.1,2.2-2.3,4.6-3.8,7.2c-1.4,2.6-3,4.9-4.6,7c-1.7,2.1-3.5,3.9-5.5,5.1
		c-1.4,0.9-2.8,1.4-4.2,1.4c-0.5,0-1.1-0.1-1.6-0.2c-3.2-0.8-5.4-3.2-6.6-7.3c-1-3.7-1.5-8-1.5-12.9c0-0.6,0-1.2,0.1-1.8
		c0-3,0.2-6.2,0.6-9.4c0.4-3.3,0.8-6.6,1.3-9.8c0.5-3.4,1.1-6.7,1.7-9.9c-0.1,0-0.2,0-0.3,0c-1.9,0.2-3.7,0.5-5.4,1
		c-1.8,0.5-3.3,1.3-4.7,2.3c-0.2,0-0.3-0.3-0.4-0.8c-0.1-0.2-0.1-0.5-0.1-0.7c0-0.2,0-0.4,0.1-0.7c2.7-1.9,5.9-2.9,9.5-3.2
		c0.6,0,1.2-0.1,1.8-0.1c0.3-1.7,0.7-3.4,1.1-5c1.2-5.3,2.1-9.1,2.7-11.6c0.5-0.8,1.3-1.2,2.2-1.2c0.2,0,0.4,0,0.6,0
		c1.2,0.2,1.7,1,1.5,2.3c-0.4,1.9-1.1,4.9-2,9.2c-0.4,1.9-0.9,3.9-1.3,6c1.3,0,2.5,0,3.7,0.1c1.7,0,3.3,0.1,4.8,0.2
		c1.4,0,2.6,0,3.4-0.1c0.9-0.1,1.6-0.4,2.1-0.9c0.5-0.5,0.7-1,0.7-1.3c0.2-0.2,0.5-0.4,0.7-0.4h0.1C144.3,56.9,144.4,56.9,144.5,57z
		"/>
	<path id="XMLID_52_" class="st0" d="M148.1,68.6c0.4-1.2,1.3-1.8,2.5-1.8h0.4c1.4,0.1,1.9,1,1.7,2.5c-0.4,2.1-0.9,4.7-1.4,7.7
		c-0.5,3-0.9,6-1.2,9.1c-0.5,4.6-0.8,8.7-0.8,12.5c0,3.7,0.7,5.7,1.9,6c1.3,0.3,2.6,0.1,4-0.7c1.4-0.8,2.8-2,4.2-3.5
		c2.1-2.2,3.9-4.7,5.6-7.6c1.6-2.9,2.7-5.2,3.4-6.9c0.3-0.1,0.6-0.1,1-0.1c0.3,0,0.6,0,0.9,0.1c-0.5,1.3-1.2,2.7-2,4.3
		c-0.8,1.7-1.7,3.3-2.7,4.9c-2,3.1-4.2,5.8-6.7,8.1c-2,1.8-4,2.7-6,2.7c-0.6,0-1.2-0.1-1.8-0.2c-0.9-0.2-1.7-0.7-2.3-1.5
		c-0.6-0.7-1.2-1.7-1.6-2.8c-0.7-2.1-1.2-4.6-1.3-7.7c0-0.9-0.1-1.9-0.1-2.9c0-2.1,0.1-4.4,0.3-6.7c0.2-2.7,0.6-5.4,1-8.1
		C147.2,73.2,147.6,70.8,148.1,68.6z M155.7,51.8c-0.2,1-0.7,1.7-1.5,2.1c-0.5,0.3-1.1,0.5-1.5,0.4c-0.2,0-0.5,0-0.7-0.1
		c-0.7-0.2-1.3-0.7-1.6-1.5c-0.2-0.5-0.3-1.1-0.3-1.7c0-0.3,0-0.6,0.1-0.9c0.1-0.9,0.6-1.7,1.2-2.3c0.4-0.5,1-0.7,1.6-0.7
		c0.2,0,0.4,0,0.7,0.1c0.9,0.2,1.5,0.8,1.8,1.8c0.2,0.5,0.3,1.1,0.3,1.7C155.8,51,155.8,51.4,155.7,51.8z"/>
	<path id="XMLID_55_" class="st0" d="M191.3,81c-0.4,0-0.7-0.1-0.8-0.2c-0.1-0.1-0.2-0.3-0.3-0.6c1.4-1.1,2.1-2.8,2.1-5.3
		c0-2.4-0.8-4.4-2.2-6c-0.4-0.5-1-0.9-1.5-1.2c-0.6-0.3-1.3-0.6-2.1-0.7c-1.3-0.1-2.5,0-3.6,0.4c-1.1,0.5-2.2,1.2-3.1,2.1
		c-1.8,1.7-3.2,3.9-4.4,6.7c-1.2,2.8-2,5.7-2.5,8.6c-0.1,1-0.2,2.1-0.3,3.4c-0.1,1.3-0.1,2.5,0,3.7c0.1,2.4,0.5,4.6,1.1,6.5
		c0.6,1.9,1.6,2.9,2.9,3c0.6,0,1.2-0.2,1.9-0.7c0.6-0.5,1.3-1.3,1.8-2.3c1.2-1.8,2.2-4.1,3.1-7.1c0.9-3,1.4-6.1,1.6-9.4
		c0.1-0.5,0.2-0.9,0.4-1.1c0.2-0.3,0.5-0.5,0.7-0.6c0.8-0.3,1.7-0.2,2.6,0.5c0.9,0.7,1.4,1.5,1.3,2.2c-0.1,1.4-0.4,3.2-0.7,5.4
		c-0.2,2.2-0.4,4.6-0.6,7c-0.3,3.7-0.4,7.1-0.2,10.2s0.8,4.8,1.8,4.9c1.1,0.1,2.6-1.1,4.3-3.8c1.8-2.7,3.6-5.7,5.3-9.2
		c1.2-2.3,2.2-4.5,3.2-6.7c1-2.2,1.9-4.1,2.5-5.6c0.2,0.1,0.4,0.2,0.7,0.3c0.3,0.1,0.5,0.3,0.7,0.5c-0.6,1.5-1.4,3.3-2.3,5.3
		c-0.9,2-1.9,4-2.9,6c-2,3.8-4,7.1-6.2,10.1c-2.1,2.9-3.9,4.3-5.4,4.3h-0.2c-0.8-0.1-1.6-0.4-2.2-1c-0.6-0.5-1.1-1.2-1.5-2.1
		c-0.4-0.8-0.8-1.8-1.1-2.9c-0.2-1.1-0.4-2.2-0.6-3.4c-0.3-2.2-0.4-4.3-0.4-6.4c0-2,0.1-3.4,0.1-4.2c-0.1,0.5-0.5,1.6-1.1,3.1
		c-0.6,1.6-1.5,3-2.4,4.4c-0.7,0.9-1.4,1.7-2.2,2.3c-0.7,0.6-1.5,0.9-2.3,0.9c-1.4-0.1-2.7-0.5-3.7-1.1c-1-0.7-1.9-1.5-2.6-2.6
		c-1.3-1.9-2.1-4.2-2.4-7c-0.2-1.3-0.3-2.6-0.3-3.9c0-1.3,0.1-2.5,0.3-3.7c0.8-5.6,2.9-10.2,6.3-13.8c2.9-3,6.3-4.5,10.2-4.5
		c0.8,0,1.6,0,2.3,0.1c1.2,0.2,2.3,0.6,3.2,1.2c0.9,0.7,1.6,1.5,2.2,2.4c1.1,1.8,1.5,3.8,1.4,6C193.4,77.9,192.7,79.7,191.3,81z"/>
</g>
<g id="XMLID_76_">
	<path id="XMLID_77_" class="st0" d="M239.5,111.7c0.9-0.1,1.7-0.1,2.4,0.1c0.8,0.2,1.4,0.5,2.1,0.9c1.1,0.8,2,1.8,2.7,3.2
		c0.6,1.4,0.9,2.9,0.8,4.6c-0.1,1.1-0.3,2.1-0.6,3c0,0.2-0.1,0.3-0.2,0.5c2.4,2.7,4.9,5,7.5,6.8c2.7,1.9,5.3,2.7,7.8,2.4
		c0.8-0.1,1.4-0.2,2-0.5c0.6-0.3,1.1-0.6,1.6-1c0.8-0.7,1.5-1.6,1.9-2.6c0.4-1,0.5-2,0.5-2.8c-0.1-1.1-0.4-2.1-1-2.7
		c-0.5-0.7-1.2-1-2-0.9c-0.7,0.1-1.3,0.4-1.7,1c-0.5,0.6-0.6,1.2-0.5,1.9c0.1,0.3,0.2,0.5,0.3,0.7c0.1,0.2,0.2,0.3,0.4,0.5
		c0.4,0.4,0.9,0.4,1.4,0.1c0.5-0.3,0.7-0.8,0.6-1.5c0.1,0,0.2,0,0.4,0.1c0.2,0.1,0.3,0.2,0.4,0.2c0,0.8-0.4,1.3-1.1,1.7
		c-0.7,0.3-1.4,0.2-2-0.2c-0.2-0.1-0.4-0.3-0.6-0.6c-0.1-0.2-0.3-0.5-0.4-0.8c-0.2-0.9-0.1-1.8,0.5-2.6c0.5-0.8,1.3-1.3,2.2-1.4
		c1-0.1,1.9,0.2,2.7,1.1c0.8,0.8,1.3,2,1.4,3.5c0,0.2,0,0.4,0,0.6c0,0.9-0.2,1.8-0.7,2.7c-0.5,1.1-1.3,2.1-2.3,2.8
		c-0.5,0.4-1.1,0.8-1.8,1.1c-0.7,0.3-1.4,0.5-2.1,0.6c-0.4,0-0.8,0.1-1.2,0.1c-2.3,0-4.8-0.8-7.2-2.4c-2.6-1.7-5.2-3.8-7.6-6.4
		c-0.2,0.4-0.4,0.7-0.6,1.1c-1,1.4-2.2,2.5-3.7,3.3c-1.5,0.8-3.1,1.3-4.7,1.4c-1.1,0.1-2.2,0-3.3-0.2c-1.1-0.2-2.1-0.6-3.1-1.1
		c-1.8-1-3.2-2.4-4.3-4.2c-0.9-1.5-1.4-3.3-1.4-5.3c0-0.4,0-0.9,0.1-1.3c0.1-1.6,0.6-3.2,1.3-4.5c0.8-1.4,1.7-2.7,2.7-4
		c1.2-1.5,2.6-2.9,3.9-4.3c0.3-0.3,0.5-0.5,0.8-0.7c0-0.1-0.1-0.3-0.1-0.4c-1.1-3-1.5-5.5-1.3-7.3c0.1-0.8,0.2-1.5,0.5-2
		s0.6-1,1-1.3c0.7-0.6,1.4-0.9,2.3-0.9c0.1,0,0.3,0,0.4,0c1,0.1,1.8,0.5,2.5,1.2c0.4,0.4,0.7,0.9,0.8,1.4c0.2,0.5,0.3,1.2,0.2,1.9
		c-0.1,1.1-0.5,2.3-1.1,3.4c-0.7,1.1-1.4,2.3-2.4,3.4c-0.4,0.5-0.9,1.1-1.3,1.7c0.8,1.9,1.8,3.8,2.9,5.9
		C238.6,111.9,239,111.8,239.5,111.7z M233.5,122.7c-0.4-0.7-0.7-1.5-0.8-2.3c-0.1-0.8-0.2-1.6,0-2.4c0.2-1.5,0.9-2.9,2.1-4.1
		c0.7-0.7,1.5-1.3,2.5-1.7c-1-1.8-1.8-3.6-2.6-5.3c-0.5,0.6-1,1.2-1.5,1.7c-1.3,1.5-2.4,2.9-3.3,4.5c-0.5,0.8-0.9,1.7-1.3,2.5
		c-0.4,0.9-0.6,1.8-0.7,2.7c-0.2,1.2-0.2,2.3,0,3.4c0.2,1.1,0.5,2.1,1,2.9c0.8,1.7,2,3,3.6,4c1.5,0.9,3.2,1.3,4.9,1.2
		c0.8,0,1.7-0.2,2.5-0.5c0.8-0.3,1.6-0.6,2.3-1.1c1.3-0.8,2.4-1.9,3.3-3.3c0.1-0.2,0.2-0.4,0.4-0.6c0-0.1-0.1-0.1-0.1-0.2
		c-1.4-1.5-2.7-3.2-3.9-4.9c-1.2-1.7-2.4-3.5-3.4-5.3l-0.4-0.7c-0.2,0.1-0.4,0.2-0.6,0.3c-0.7,0.4-1.4,0.8-1.9,1.4
		c-1,1-1.6,2.2-1.9,3.5c-0.3,1.4-0.1,2.7,0.6,3.9c0.7,1.1,1.6,1.8,2.8,1.9c1.2,0.1,2.2-0.2,2.8-1c0.2-0.3,0.4-0.6,0.5-0.9
		c0.1-0.4,0.2-0.7,0.1-1.2c0-1-0.3-1.9-0.9-2.6c-0.5-0.7-1.2-0.9-1.9-0.7c-0.3,0.1-0.6,0.2-0.7,0.3c-0.2,0.2-0.4,0.4-0.5,0.6
		c-0.3,0.6-0.3,1.2,0,1.8c0.3,0.6,0.8,0.8,1.5,0.4c0.1,0.1,0.2,0.2,0.2,0.2c0,0,0,0.1,0.1,0.2c-0.3,0.2-0.5,0.3-0.8,0.3
		c-0.3,0-0.5,0-0.7-0.1c-0.5-0.2-0.8-0.6-1-1.2c-0.2-0.6-0.1-1.2,0.2-1.8c0.1-0.3,0.4-0.5,0.6-0.7c0.3-0.2,0.6-0.4,1-0.5
		c0.9-0.2,1.7,0,2.4,0.8c0.7,0.7,1,1.7,1.1,2.9c0,0.5,0,0.9-0.2,1.3c-0.1,0.4-0.3,0.7-0.6,1.1c-0.3,0.3-0.6,0.6-1,0.8
		c-0.4,0.2-0.8,0.3-1.2,0.4c-0.8,0.2-1.6,0.1-2.4-0.2C234.6,124.1,234,123.5,233.5,122.7z M236.7,101.7c0.5-0.7,0.9-1.4,1.3-2.1
		c0.3-0.7,0.5-1.5,0.6-2.2c0.1-1.3-0.3-2.3-1.2-3c-0.9-0.7-1.8-0.7-2.6-0.1c-0.4,0.2-0.7,0.6-0.9,1.1c-0.3,0.5-0.5,1.2-0.5,2
		c-0.1,0.9,0,1.9,0.3,3.2c0.2,1.1,0.6,2.3,1.1,3.7C235.4,103.4,236,102.5,236.7,101.7z M239.6,114.1c2,3.3,4.2,6.4,6.6,9.2
		c0.4-0.9,0.6-1.8,0.6-2.8c0.1-1.7-0.2-3.1-0.9-4.3c-0.7-1.2-1.6-2.1-2.6-2.7c-0.6-0.3-1.2-0.6-1.8-0.7s-1.3-0.1-1.9,0
		c-0.2,0-0.5,0.1-0.7,0.1C239.1,113.3,239.3,113.7,239.6,114.1z"/>
</g>
<g id="XMLID_14_">
	<path id="XMLID_57_" class="st0" d="M76.2,121.8c2.4,0,4.2,1.5,5.4,4.2c1.2,2.8,2,6.4,2.3,10.8c0.2,2.3,0.3,4.9,0.3,7.6
		c0,2.7,0,5.4-0.1,8.3c-0.1,3.5-0.3,7-0.6,10.5c-0.3,3.5-0.6,6.8-0.8,10c-0.5,6-0.9,11-1.1,15.1c-0.2,4.1,0,6.2,0.8,6.3
		c0.9,0,1.6-0.6,2.1-1.8c0.5-1.3,0.8-2.4,0.7-3.1c0.2,0,0.5,0,0.7,0.1c0.2,0,0.5,0.2,0.7,0.4c0,0.8-0.6,2.2-1.7,4
		c-1,1.8-2.2,2.6-3.5,2.6h-0.2c-0.9-0.1-1.7-0.6-2.3-1.5c-0.6-0.9-1.1-2.2-1.4-3.7c-0.7-2.9-1-6.7-1-11.4c0-4.7,0.1-9.6,0.4-14.9
		c0.2-3.5,0.4-7,0.6-10.5c0.2-3.5,0.5-6.9,0.7-10c0.3-6,0.3-11,0.1-15c-0.2-4.1-1-6.2-2.5-6.2c-1.6,0-3.1,0.6-4.7,1.8
		c-1.6,1.2-3,2.7-4.4,4.5c-2.1,2.6-3.9,5.4-5.4,8.4c-1,2.1-1.8,3.7-2.3,4.9c0.1,1,0.3,2.1,0.4,3.1c0.2,3.1,0.4,6.2,0.4,9.2v0.6
		c0,3.3-0.1,6.5-0.4,9.5c-0.5,5.6-1.4,10.3-2.6,14.1c-1.3,3.8-2.8,5.7-4.5,5.7c-1.6,0-2.5-1-2.9-3.1c-0.4-2.1-0.5-4.7-0.2-7.8
		c0.1-1.7,0.4-3.4,0.7-5.3c0.3-1.9,0.7-3.7,1.1-5.6c1-4.3,2.2-8.3,3.4-11.9c0.1-0.5,0.3-1,0.4-1.4c0-1.2-0.1-2.4-0.1-3.7
		c-0.1-3.2-0.4-6.3-0.9-9.3c-0.7-5.5-2-10.2-3.7-14.1c-1.7-3.9-4.1-5.9-7.1-6.2c-3.8-0.3-7.1,0.6-9.9,2.9c-2.9,2.3-5.2,5.1-6.8,8.3
		c-0.9,1.8-1.7,3.7-2.2,5.6c-0.6,1.9-0.9,3.7-1,5.5c-0.3,3.6,0.1,7.1,1.1,10.5c1,3.5,2.6,6.3,4.7,8.5c1.1,1.2,2.4,2.1,3.8,2.7
		c1.4,0.6,3,0.9,4.6,0.9c1.4,0,2.7-0.3,3.7-0.9c1.1-0.5,2-1.2,2.8-2.1c1.7-1.8,2.7-3.9,3-6.4c0.3-2.5-0.1-4.5-1.2-6.1
		c-0.5-0.7-1.1-1.2-1.8-1.5c-0.7-0.4-1.6-0.6-2.6-0.5c-0.8,0-1.5,0.2-2.1,0.5c-0.6,0.3-1.1,0.8-1.5,1.4c-0.4,0.6-0.8,1.2-1,2
		c-0.2,0.7-0.3,1.5-0.2,2.3c0,1.4,0.4,2.8,1.1,4c0.7,1.2,1.7,2,2.9,2.2c0,0.3,0,0.6-0.1,0.9c0,0.2-0.2,0.4-0.4,0.4
		c-0.8-0.1-1.6-0.4-2.2-0.8c-0.6-0.5-1.2-1.1-1.6-1.8c-1-1.5-1.3-3.4-1.1-5.6c0.2-2.2,1-3.9,2.3-5.2c0.5-0.4,1-0.8,1.7-1.1
		c0.6-0.3,1.3-0.4,2.1-0.4c1.2,0,2.2,0.1,3,0.4c0.9,0.3,1.6,0.9,2.2,1.5c0.6,0.6,1.1,1.4,1.5,2.3c0.3,0.9,0.5,1.9,0.6,3
		c0.1,2-0.3,4-1.1,6c-0.8,2.1-2.1,3.7-3.7,5.1c-0.9,0.7-1.9,1.2-2.9,1.7c-1,0.4-2.2,0.6-3.4,0.7c-1.9,0-3.6-0.3-5.2-1
		c-1.7-0.7-3.1-1.6-4.5-2.9c-2.4-2.3-4.3-5.3-5.6-9.1c-0.9-2.9-1.4-5.9-1.4-8.9c0-0.9,0-1.8,0.1-2.6c0.2-2.5,0.7-4.9,1.4-7.1
		c0.7-2.2,1.6-4.3,2.6-6.2c2.1-3.5,4.7-6.2,7.8-8.1c2.7-1.6,5.7-2.4,9-2.4c0.5,0,1.1,0,1.6,0.1c3.2,0.2,5.9,1.8,8.1,4.5
		s3.9,6.3,5.2,10.5c0.7,2.2,1.3,4.7,1.8,7.3c0.1,1,0.3,2.1,0.4,3.1c0.5-1.1,1.3-2.6,2.2-4.5c1.5-3.1,3.3-6,5.5-8.7
		c1.5-1.9,3-3.4,4.6-4.7C72.9,122.4,74.5,121.8,76.2,121.8L76.2,121.8z M53.4,158.5c-0.4,1.7-0.9,3.4-1.2,5.2
		c-0.4,1.8-0.7,3.6-1,5.3c-0.6,4.1-0.9,7.6-0.9,10.7c0,3.1,0.7,4.6,2.1,4.5c0.2,0,0.4-0.4,0.6-1.2c0.2-0.8,0.5-1.9,0.7-3.2
		c0.4-2.5,0.7-5.9,1-10.1c0.3-4.2,0.4-8.7,0.4-13.5c0-1.2,0-2.4-0.1-3.6C54.4,154.4,53.9,156.4,53.4,158.5z"/>
	<path id="XMLID_60_" class="st0" d="M91.2,148.9c0.4-1.2,1.3-1.8,2.5-1.8h0.4c1.4,0.1,1.9,1,1.7,2.5c-0.4,2.1-0.9,4.7-1.4,7.7
		c-0.5,3-0.9,6-1.2,9.1c-0.5,4.6-0.8,8.7-0.8,12.5c0,3.7,0.7,5.7,1.9,6c1.3,0.3,2.6,0.1,4-0.7c1.4-0.8,2.8-2,4.2-3.5
		c2.1-2.2,3.9-4.7,5.6-7.6c1.6-2.9,2.7-5.2,3.4-6.9c0.3-0.1,0.6-0.1,1-0.1c0.3,0,0.6,0,0.9,0.1c-0.5,1.3-1.2,2.7-2,4.3
		c-0.8,1.7-1.7,3.3-2.7,4.9c-2,3.1-4.2,5.8-6.7,8.1c-2,1.8-4,2.7-6,2.7c-0.6,0-1.2-0.1-1.8-0.2c-0.9-0.2-1.7-0.7-2.3-1.5
		c-0.6-0.7-1.2-1.7-1.6-2.8c-0.7-2.1-1.2-4.6-1.3-7.7c0-0.9-0.1-1.9-0.1-2.9c0-2.1,0.1-4.4,0.3-6.7c0.2-2.7,0.6-5.4,1-8.1
		C90.4,153.6,90.8,151.1,91.2,148.9z M98.8,132.2c-0.2,1-0.7,1.7-1.5,2.1c-0.5,0.3-1.1,0.5-1.5,0.4c-0.2,0-0.5,0-0.7-0.1
		c-0.7-0.2-1.3-0.7-1.6-1.5c-0.2-0.5-0.3-1.1-0.3-1.7c0-0.3,0-0.6,0.1-0.9c0.1-0.9,0.6-1.7,1.2-2.3c0.4-0.5,1-0.7,1.6-0.7
		c0.2,0,0.4,0,0.7,0.1c0.9,0.2,1.5,0.8,1.8,1.8c0.2,0.5,0.3,1.1,0.3,1.7C99,131.4,98.9,131.8,98.8,132.2z"/>
	<path id="XMLID_63_" class="st0" d="M134.5,153.5c-0.1,0.1-0.3,0.2-0.5,0.4c0,1.1,0,2.1-0.3,3.1c-0.4,1.7-1.1,2.6-2.1,2.6
		c-1.1,0-1.3-1-0.7-2.7c0.4-1.3,1-2.3,1.7-3.2c0-0.6,0-1.3-0.1-1.9c-0.1-0.7-0.3-1.4-0.5-2.1c-0.2-0.7-0.5-1.3-0.8-1.9
		c-0.4-0.6-0.9-1.1-1.4-1.5c-0.6-0.4-1.2-0.6-2-0.6c-1.2,0-2.2,0.3-3.1,1c-0.9,0.7-1.8,1.6-2.6,2.7c-1.4,2.1-2.5,4.8-3.2,8.1
		c-0.7,3.3-1.1,6.4-1.2,9.4c0,1.3,0,2.7,0.3,4.2c0.2,1.5,0.5,3,0.9,4.5c0.7,2.6,1.8,5,3.1,7c1.3,2.1,2.8,3.1,4.5,3.3
		c1.4,0.2,2.9-0.3,4.5-1.6c1.6-1.2,3.1-2.8,4.5-4.6c1.4-1.8,2.6-3.7,3.8-5.8c1.1-2,2.1-3.8,2.9-5.3c0.4-0.8,0.7-1.5,1-2.1
		c0.2-0.6,0.4-1,0.5-1.2c0.2,0,0.5,0,0.7,0c0.3,0,0.6,0.2,0.8,0.4c-0.2,0.9-1.2,2.9-2.8,6.1c-1.6,3.1-3.6,6.1-5.9,8.9
		c-1.5,1.9-3.1,3.5-4.8,4.7c-1.6,1.1-3.1,1.7-4.6,1.7c-0.2,0-0.4,0-0.6-0.1c-5-0.4-8.7-2.7-11.1-6.7c-2.4-3.9-3.6-8.2-3.7-13v-0.6
		c0-2.3,0.3-4.5,0.8-6.6c0.5-2.1,1.1-3.9,2-5.6c1.6-3.1,3.5-5.5,5.9-7.3c2.3-1.7,4.7-2.5,7.1-2.5h0.2c1,0,1.8,0.2,2.6,0.7
		s1.3,1,1.8,1.8c0.5,0.6,0.9,1.3,1.2,2.1c0.3,0.8,0.5,1.6,0.7,2.5c0,0.3,0.1,0.7,0.1,1c0.1,0,0.2,0,0.3,0.1
		C134.3,153,134.4,153.2,134.5,153.5z M132.4,156.3c-0.7,1.5-1,2.2-0.7,2.2c0.3,0,0.6-0.7,0.8-2.1l0.1-0.5L132.4,156.3z"/>
	<path id="XMLID_66_" class="st0" d="M168.5,151.7c0,0.1-0.2,0.3-0.4,0.4c-0.1,0.1-0.3,0.1-0.4,0.1c-2.2-3.2-4.7-4.5-7.5-4
		c-2.8,0.5-5.3,2.3-7.4,5.2c-1.1,1.6-2.1,3.4-2.8,5.6c-0.7,2.1-1.2,4.5-1.3,7c-0.1,2.8,0.1,5.8,0.7,8.9c0.5,3.1,1.5,5.7,2.8,7.8
		c0.7,1.1,1.5,2,2.4,2.7c0.9,0.7,2,1.1,3.1,1.1c1.4,0,2.6-0.2,3.7-0.7c1.1-0.5,2.1-1.3,3.1-2.3c0.8-0.8,1.5-1.8,2.2-2.9
		c-1-0.4-1.9-1.1-2.7-2.1c-1-1-1.8-2.2-2.4-3.7c-1.2-2.7-1.7-5.6-1.7-8.9c0-3.2,0.8-5.8,2.2-7.8c0.5-0.8,1.2-1.4,2-1.9
		c0.7-0.5,1.6-0.8,2.6-1c2.2-0.2,3.8,1.2,4.7,4.2c0.8,3.1,1,6.7,0.4,10.6c-0.3,2.6-1.1,5.2-2.1,7.7c-0.3,0.7-0.6,1.4-1,2.1
		c0.8,0.1,1.6,0.1,2.3-0.1c1.1-0.2,2.1-0.7,3.1-1.3c2.4-1.5,4.5-3.7,6.4-6.4c1.9-2.8,3.1-5,3.7-6.5l1.5,0.4
		c-0.6,1.5-1.7,3.6-3.4,6.3c-1.8,2.7-3.9,4.9-6.3,6.5c-1.3,0.9-2.7,1.6-4.1,2c-1.2,0.3-2.5,0.4-3.8,0.1c-0.7,1.2-1.6,2.3-2.6,3.3
		c-1,1-2.2,1.8-3.5,2.4c-1.3,0.6-2.6,0.9-4.1,0.9h-0.3c-5.2-0.1-9-2.2-11.6-6.4c-2.2-3.6-3.4-7.9-3.4-13c0-0.8,0-1.6,0.1-2.4
		c0.2-3,0.9-5.6,2.1-8c1.1-2.3,2.5-4.3,4.2-5.9c1.1-1,2.2-1.9,3.5-2.6c1.2-0.7,2.5-1.3,3.7-1.7c1.3-0.3,2.5-0.5,3.7-0.5
		c1.1,0,2.2,0.1,3.3,0.4C165.3,148.2,167.1,149.6,168.5,151.7z M168.1,177.6c0.9-2.3,1.6-4.7,2-7.2c0.6-3.7,0.6-7,0.1-10
		c-0.5-2.9-1.6-4.2-3.3-4c-1.2,0.2-2.1,1.2-2.7,3.1c-0.6,1.9-0.9,4-1,6.4c0,2.9,0.3,5.8,1.1,8.6c0.7,2.5,1.7,4.2,3,4.8
		C167.5,178.9,167.8,178.3,168.1,177.6z"/>
	<path id="XMLID_69_" class="st0" d="M188.9,167.2c0.2,6.1,0.7,11,1.5,14.9c0.4,2.1,0.9,3.9,1.4,5.1c0.5,1.3,1.2,2,1.9,2.1
		c1.2,0.2,2.5-0.5,4-2.3c1.5-1.8,2.9-3.9,4.3-6.4c1.8-3.1,3.3-6.2,4.7-9.2c1.4-3.1,2.2-5.1,2.6-6c0.2,0,0.5,0.1,0.7,0.2
		c0.2,0.1,0.5,0.2,0.7,0.4c-0.1,0.4-0.4,1-0.7,1.7c-0.3,0.8-0.7,1.7-1.1,2.7c-0.8,1.9-1.9,4.1-3.1,6.4c-1.2,2.4-2.5,4.7-3.9,6.8
		c-1.4,2.1-2.9,3.9-4.3,5.3c-1.3,1.2-2.5,1.8-3.7,1.8c-0.2,0-0.4,0-0.7-0.1c-1.2-0.2-2.2-0.8-3.2-1.8c-1-1-1.9-2.3-2.6-3.9
		c-1.4-3-2.5-6.8-3.2-11.4c-0.7-4.6-1.1-9.5-1.1-14.6V158c0-3.1,0.1-6.2,0.4-9.2c0.2-3.4,0.6-6.7,1.2-9.7c0.9-5.7,2.3-10.5,4-14.5
		c1.8-3.9,4-5.9,6.5-6h0.1c1.1,0,2,0.4,2.7,1.3c0.8,0.9,1.4,2.1,1.8,3.7c0.8,2.9,1.1,6.7,0.7,11.4c-0.4,4.7-1.4,9.5-2.9,14.4
		c-1.1,3.2-2.4,6.3-4.1,9.4c-1.4,2.6-2.9,4.9-4.7,7L188.9,167.2z M193.6,155.4c1.8-4,3.1-8,4-12.1c0.9-4,1.4-7.7,1.5-11.4
		c0.1-3.6-0.2-6.4-0.8-8.6c-0.3-1.2-0.7-2.1-1.2-2.7c-0.5-0.7-1.1-1-1.8-1c-1.1,0-2,1.4-2.9,4.1c-0.8,2.6-1.5,6-2.1,10.2
		c-0.3,2.2-0.5,4.6-0.7,7.2c-0.2,2.6-0.4,5.2-0.5,7.9c-0.2,4.8-0.3,9.6-0.2,14.4C190.7,161.1,192.3,158.4,193.6,155.4z"/>
	<path id="XMLID_72_" class="st0" d="M232.3,161.4c-0.4,0-0.7-0.1-0.8-0.2c-0.1-0.1-0.2-0.3-0.3-0.6c1.4-1.1,2.1-2.8,2.1-5.3
		c0-2.4-0.8-4.4-2.2-6c-0.4-0.5-1-0.9-1.5-1.2c-0.6-0.3-1.3-0.6-2.1-0.7c-1.3-0.1-2.5,0-3.6,0.4c-1.1,0.5-2.2,1.2-3.1,2.1
		c-1.8,1.7-3.2,3.9-4.4,6.7c-1.2,2.8-2,5.7-2.5,8.6c-0.1,1-0.2,2.1-0.3,3.4c-0.1,1.3-0.1,2.5,0,3.7c0.1,2.4,0.5,4.6,1.1,6.5
		c0.6,1.9,1.6,2.9,2.9,3c0.6,0,1.2-0.2,1.9-0.7c0.6-0.5,1.3-1.3,1.8-2.3c1.2-1.8,2.2-4.1,3.1-7.1c0.9-3,1.4-6.1,1.6-9.4
		c0.1-0.5,0.2-0.9,0.4-1.1c0.2-0.3,0.5-0.5,0.7-0.6c0.8-0.3,1.7-0.2,2.6,0.5c0.9,0.7,1.4,1.5,1.3,2.2c-0.1,1.4-0.4,3.2-0.7,5.4
		c-0.2,2.2-0.4,4.6-0.6,7c-0.3,3.7-0.4,7.1-0.2,10.2s0.8,4.8,1.8,4.9c1.1,0.1,2.6-1.1,4.3-3.8c1.8-2.7,3.6-5.7,5.3-9.2
		c1.2-2.3,2.2-4.5,3.2-6.7c1-2.2,1.9-4.1,2.5-5.6c0.2,0.1,0.4,0.2,0.7,0.3c0.3,0.1,0.5,0.3,0.7,0.5c-0.6,1.5-1.4,3.3-2.3,5.3
		c-0.9,2-1.9,4-2.9,6c-2,3.8-4,7.1-6.2,10.1c-2.1,2.9-3.9,4.3-5.4,4.3h-0.2c-0.8-0.1-1.6-0.4-2.2-1c-0.6-0.5-1.1-1.2-1.5-2.1
		c-0.4-0.8-0.8-1.8-1.1-2.9c-0.2-1.1-0.4-2.2-0.6-3.4c-0.3-2.2-0.4-4.3-0.4-6.4c0-2,0.1-3.4,0.1-4.2c-0.1,0.5-0.5,1.6-1.1,3.1
		c-0.6,1.6-1.5,3-2.4,4.4c-0.7,0.9-1.4,1.7-2.2,2.3c-0.7,0.6-1.5,0.9-2.3,0.9c-1.4-0.1-2.7-0.5-3.7-1.1c-1-0.7-1.9-1.5-2.6-2.6
		c-1.3-1.9-2.1-4.2-2.4-7c-0.2-1.3-0.3-2.6-0.3-3.9c0-1.3,0.1-2.5,0.3-3.7c0.8-5.6,2.9-10.2,6.3-13.8c2.9-3,6.3-4.5,10.2-4.5
		c0.8,0,1.6,0,2.3,0.1c1.2,0.2,2.3,0.6,3.2,1.2c0.9,0.7,1.6,1.5,2.2,2.4c1.1,1.8,1.5,3.8,1.4,6C234.3,158.3,233.6,160.1,232.3,161.4
		z"/>
	<path id="XMLID_74_" class="st0" d="M251.9,148.4c-0.3,1.2-0.5,3.2-0.7,5.9c-0.1,2.7-0.2,5.6-0.1,8.6c0,1.6,0,3.2,0.1,4.9
		c0.1,1.6,0.2,3.2,0.4,4.7c0.3,2.7,0.8,5,1.3,6.9c0.6,1.9,1.3,2.9,2.1,2.9c1.3,0,2.7-1.3,4.3-4.2c1.6-2.8,3-6.1,4.2-9.9
		c0.6-2,1.2-4,1.6-6.1c0.4-2.1,0.7-4,0.8-5.8c0.1-0.5,0.3-0.9,0.5-1.1c0.2-0.2,0.4-0.4,0.7-0.6c0.8-0.3,1.6-0.1,2.6,0.6
		c0.9,0.7,1.4,1.4,1.3,2.1c-0.2,1.4-0.4,3.4-0.7,6c-0.3,2.7-0.6,5.5-0.9,8.6l-0.3,4.7c-0.1,1.6-0.2,3.1-0.2,4.5c0,2.6,0,4.9,0.3,6.7
		c0.2,1.8,0.7,2.8,1.4,2.9c1.1,0.1,2.5-1.1,4.3-3.8c1.8-2.7,3.6-5.7,5.3-9.2c1.2-2.3,2.3-4.5,3.3-6.7c1-2.2,1.8-4.1,2.4-5.6
		c0.2,0.1,0.5,0.2,0.8,0.3c0.2,0.1,0.5,0.3,0.7,0.5c-0.6,1.5-1.4,3.3-2.3,5.3c-0.9,2-1.9,4-2.9,6c-2,3.8-4,7.1-6.2,10.1
		c-2.1,2.9-3.8,4.3-5.3,4.3h-0.2c-0.7-0.1-1.3-0.3-1.8-0.7c-0.5-0.4-1-1-1.4-1.7c-0.5-0.9-1-2.1-1.3-3.4c-0.4-1.3-0.6-2.7-0.8-4.2
		c-0.3-2.7-0.5-5.4-0.5-8c0-2.6,0-4.3,0-5.3c0,0.6-0.5,1.9-1.2,4c-0.8,2.1-1.8,4.1-3,6c-0.8,1.3-1.6,2.3-2.6,3.2
		c-0.9,0.9-1.9,1.3-2.9,1.2c-1,0-2-0.4-2.8-1.1c-0.8-0.6-1.6-1.5-2.2-2.6c-0.9-1.5-1.6-3.3-2.1-5.5c-0.5-2.2-0.9-4.5-1.2-6.8
		c-0.3-2.9-0.5-5.7-0.5-8.5v-1.3c0-2.2,0-4.2,0.1-5.9c0-1.1,0.1-2,0.1-2.7c0.1-0.7,0.2-1.2,0.2-1.5c0.7-0.8,1.5-1.2,2.6-1.2h0.1
		C250.5,146.3,251.3,147,251.9,148.4z"/>
</g>
</svg>
